<?xml version="1.0" standalone="no"?>
<!DOCTYPE svg PUBLIC "-//W3C//DTD SVG 20010904//EN"
 "http://www.w3.org/TR/2001/REC-SVG-20010904/DTD/svg10.dtd">
<svg version="1.0" xmlns="http://www.w3.org/2000/svg"
 width="2400.000000pt" height="2400.000000pt" viewBox="0 0 2400.000000 2400.000000"
 preserveAspectRatio="xMidYMid meet">
<metadata>
Created by potrace 1.16, written by Peter Selinger 2001-2019
</metadata>
<g transform="translate(0.000000,2400.000000) scale(0.100000,-0.100000)"
fill="#000000" stroke="none">
<path d="M4975 23920 c-3 -5 -21 -10 -39 -10 -18 0 -68 -11 -112 -24 -56 -17
-114 -26 -198 -30 -111 -5 -125 -8 -191 -41 -51 -25 -86 -35 -121 -36 -91 -1
-156 -15 -174 -36 -25 -31 -49 -40 -133 -48 -63 -5 -86 -12 -125 -39 -26 -17
-78 -40 -117 -50 -41 -10 -80 -27 -96 -42 -14 -13 -33 -24 -43 -24 -9 0 -50
-18 -90 -40 -40 -22 -84 -40 -98 -40 -14 0 -36 -8 -49 -19 -42 -32 -99 -61
-122 -61 -13 0 -33 -9 -45 -20 -12 -11 -25 -20 -29 -20 -4 0 -19 -9 -33 -20
-14 -11 -35 -20 -47 -20 -13 0 -28 -9 -35 -20 -7 -11 -17 -20 -21 -20 -5 0
-21 -8 -35 -19 -15 -10 -43 -21 -63 -25 -21 -4 -48 -19 -65 -37 -16 -16 -47
-39 -69 -50 -22 -12 -51 -31 -65 -44 -14 -12 -38 -26 -55 -29 -16 -4 -46 -23
-65 -42 -37 -37 -105 -84 -175 -121 -24 -12 -52 -33 -63 -47 -11 -14 -24 -26
-28 -26 -5 0 -28 -18 -52 -40 -23 -22 -48 -40 -55 -40 -6 0 -46 -32 -87 -71
-41 -39 -92 -81 -112 -94 -20 -14 -54 -39 -74 -57 -30 -26 -344 -340 -539
-538 -19 -20 -35 -42 -35 -50 0 -9 -22 -38 -48 -65 -27 -28 -53 -57 -58 -65
-5 -8 -18 -20 -29 -26 -11 -6 -29 -29 -40 -52 -11 -23 -30 -50 -42 -61 -12
-11 -29 -34 -39 -50 -10 -16 -25 -31 -34 -34 -9 -2 -21 -22 -28 -43 -6 -22
-30 -58 -52 -81 -22 -23 -40 -49 -40 -57 0 -7 -14 -29 -31 -47 -18 -19 -36
-48 -41 -66 -5 -18 -22 -45 -39 -60 -17 -15 -40 -48 -51 -73 -10 -25 -30 -56
-43 -70 -13 -14 -31 -45 -41 -70 -9 -25 -28 -56 -40 -71 -13 -14 -24 -31 -24
-38 0 -13 -29 -73 -39 -81 -22 -17 -51 -66 -51 -86 0 -28 -15 -57 -48 -94 -12
-14 -24 -34 -27 -45 -2 -11 -6 -32 -9 -47 -4 -15 -18 -39 -32 -53 -28 -28 -49
-95 -39 -127 6 -18 8 -17 26 6 10 13 19 32 19 41 0 9 9 35 20 57 11 23 20 47
20 53 0 7 9 20 20 30 11 10 20 27 20 37 0 21 32 87 61 130 11 14 19 36 19 47
0 12 9 30 20 41 11 11 20 24 20 28 0 5 9 17 20 27 11 10 20 23 20 30 0 6 8 20
18 31 10 10 25 34 32 52 8 17 18 32 22 32 5 0 8 10 8 21 0 12 15 43 34 69 19
27 43 65 54 87 11 21 30 47 42 58 12 11 28 35 36 53 13 33 74 122 128 188 15
18 26 35 26 39 0 4 18 29 40 55 22 26 40 54 40 61 0 8 22 37 48 64 27 28 55
61 64 74 9 13 42 50 72 82 31 32 56 63 56 69 0 11 342 364 460 474 35 34 74
71 86 82 12 12 37 32 56 45 18 13 65 50 105 84 39 33 91 76 115 96 42 34 233
174 266 194 9 6 63 42 120 80 57 39 121 78 141 89 20 10 49 29 65 42 15 14 47
33 70 44 22 10 56 30 75 44 19 14 41 26 49 26 8 0 39 18 71 40 31 22 61 40 67
40 17 0 111 50 124 65 7 8 21 15 31 15 11 0 27 4 37 9 9 5 49 23 87 41 39 18
78 36 87 41 10 5 23 9 30 9 11 0 123 51 200 91 10 5 25 9 33 9 8 0 25 5 38 12
48 25 58 28 81 28 14 0 27 4 30 9 3 4 25 11 49 13 25 3 59 13 77 22 18 9 41
16 51 16 10 0 21 5 24 10 3 6 21 10 40 10 19 0 37 5 40 10 3 6 21 10 40 10 19
0 37 5 40 10 3 6 17 10 31 10 13 0 32 4 42 9 34 17 89 31 125 31 20 0 39 5 42
10 3 6 28 10 55 10 27 0 51 4 54 9 3 5 29 11 58 15 96 11 133 17 153 26 11 5
49 12 85 17 107 13 13849 9 13950 -4 77 -11 251 -38 405 -64 33 -5 78 -12 100
-15 22 -3 44 -10 50 -15 5 -5 19 -9 31 -9 13 0 26 -4 29 -10 3 -5 24 -10 45
-10 21 0 41 -4 44 -9 3 -5 23 -11 43 -14 79 -12 109 -20 135 -38 14 -11 31
-19 37 -19 6 0 19 -4 29 -9 31 -15 88 -31 115 -31 14 0 29 -4 32 -10 3 -5 17
-10 30 -10 13 0 27 -4 30 -10 3 -5 17 -10 31 -10 13 0 24 -4 24 -10 0 -5 6
-10 14 -10 8 0 40 -13 71 -30 31 -16 66 -30 76 -30 11 0 27 -4 37 -9 9 -5 28
-13 42 -19 14 -5 48 -20 75 -32 28 -12 61 -27 75 -32 14 -6 33 -14 42 -19 10
-5 24 -9 32 -9 7 0 19 -7 26 -15 15 -18 109 -65 131 -65 9 0 22 -7 29 -15 13
-16 108 -65 126 -65 6 0 17 -7 24 -15 7 -8 25 -21 41 -30 16 -8 42 -22 58 -30
16 -9 34 -22 41 -30 7 -8 17 -15 22 -15 5 0 42 -22 83 -50 41 -27 79 -50 85
-50 5 0 10 -4 10 -10 0 -5 6 -10 13 -10 7 0 28 -13 47 -30 19 -16 39 -29 43
-30 4 0 22 -13 40 -30 18 -16 36 -30 40 -30 11 0 85 -52 114 -79 12 -12 26
-21 31 -21 5 0 45 -30 88 -68 118 -100 173 -145 229 -182 66 -44 567 -548 588
-591 8 -19 32 -50 51 -68 20 -19 36 -40 36 -45 1 -6 37 -49 80 -96 44 -47 80
-92 80 -101 0 -8 14 -28 30 -44 17 -16 30 -34 30 -40 0 -7 9 -20 20 -30 11
-10 20 -23 20 -30 0 -6 14 -24 30 -40 17 -16 30 -34 30 -40 0 -6 12 -22 26
-36 14 -13 33 -40 41 -59 20 -42 74 -124 85 -128 4 -2 8 -8 8 -14 0 -6 14 -26
30 -45 17 -18 30 -41 30 -50 0 -9 7 -25 17 -35 24 -26 42 -60 76 -138 6 -14
23 -43 37 -65 14 -22 30 -51 36 -65 23 -51 39 -85 44 -90 5 -5 24 -44 39 -82
11 -28 38 -84 56 -118 7 -14 17 -36 23 -50 11 -30 50 -118 63 -142 5 -10 9
-25 9 -33 0 -8 4 -23 9 -33 5 -9 13 -28 19 -42 5 -14 19 -46 31 -72 12 -26 21
-57 21 -67 0 -11 5 -23 10 -26 6 -3 10 -17 10 -31 0 -13 5 -34 12 -47 24 -48
28 -57 28 -76 0 -11 5 -23 10 -26 6 -3 10 -21 10 -40 0 -19 5 -37 10 -40 6 -3
10 -22 10 -41 0 -19 5 -43 10 -54 5 -11 15 -29 20 -40 6 -11 10 -29 10 -39 0
-11 4 -22 9 -25 5 -3 12 -23 15 -43 4 -21 11 -60 16 -88 4 -27 13 -77 19 -110
5 -33 15 -81 21 -107 5 -27 15 -69 20 -95 6 -27 16 -100 23 -163 11 -97 15
-110 23 -85 5 17 9 89 8 160 -1 118 -4 136 -28 194 -22 52 -30 89 -36 183 -5
68 -15 129 -23 145 -8 16 -22 42 -31 60 -18 34 -36 126 -36 185 0 26 -10 49
-33 80 -28 36 -35 56 -41 114 -4 38 -15 85 -26 104 -37 69 -53 106 -67 160 -7
30 -20 62 -28 71 -9 8 -22 38 -31 65 -9 27 -28 64 -42 82 -13 19 -32 59 -42
90 -9 32 -29 74 -43 96 -15 21 -32 57 -38 80 -6 22 -19 50 -29 61 -22 25 -60
99 -60 118 0 7 -11 24 -25 37 -13 12 -32 46 -41 74 -9 28 -32 68 -50 89 -19
20 -34 41 -34 46 0 5 -15 28 -34 50 -19 23 -40 58 -46 79 -7 20 -27 53 -44 72
-42 45 -85 103 -116 156 -48 80 -177 245 -260 332 -20 20 -44 51 -55 67 -10
17 -37 52 -59 79 -61 74 -499 516 -511 516 -5 0 -20 15 -32 34 -15 23 -32 35
-55 40 -25 4 -57 28 -115 86 -45 44 -85 80 -90 80 -10 0 -94 66 -138 109 -16
16 -47 36 -67 44 -20 9 -47 27 -59 41 -12 14 -38 31 -58 40 -20 8 -49 28 -65
45 -16 16 -43 33 -60 37 -17 3 -47 23 -67 45 -23 25 -46 39 -61 39 -15 0 -39
15 -63 40 -24 24 -52 42 -72 46 -19 4 -52 22 -74 40 -25 20 -57 37 -81 40 -23
4 -56 20 -80 40 -22 19 -51 36 -64 39 -13 3 -34 7 -46 10 -13 2 -38 18 -56 34
-28 27 -85 51 -118 51 -6 0 -17 7 -24 15 -7 8 -38 22 -69 31 -31 9 -77 29
-103 45 -25 17 -75 37 -110 46 -34 9 -76 26 -91 39 -31 26 -44 30 -125 38 -34
3 -73 17 -110 38 -46 26 -75 34 -160 44 -76 10 -116 20 -150 39 -50 28 -151
45 -273 45 -48 0 -94 9 -165 33 l-99 32 -7017 3 c-4721 1 -7019 -1 -7023 -8z"/>
<path d="M21750 22541 c0 -6 5 -11 10 -11 13 0 13 7 0 15 -5 3 -10 1 -10 -4z"/>
<path d="M22945 21180 c3 -5 10 -10 16 -10 5 0 9 5 9 10 0 6 -7 10 -16 10 -8
0 -12 -4 -9 -10z"/>
<path d="M23280 20680 c0 -5 5 -10 10 -10 6 0 10 5 10 10 0 6 -4 10 -10 10 -5
0 -10 -4 -10 -10z"/>
<path d="M412 20298 c-21 -28 -34 -57 -38 -91 -4 -31 -19 -67 -39 -98 -24 -35
-35 -64 -40 -110 -7 -57 -20 -90 -59 -152 -8 -12 -18 -53 -21 -92 -5 -47 -18
-93 -41 -141 -25 -53 -35 -91 -39 -145 -7 -87 -18 -138 -53 -238 -22 -64 -25
-93 -28 -235 -2 -88 -11 -222 -20 -296 -17 -127 -18 -535 -21 -6590 -3 -5852
-2 -6472 12 -6645 9 -104 20 -296 25 -425 7 -209 10 -241 30 -290 35 -86 48
-139 55 -224 5 -60 15 -94 37 -136 19 -37 33 -82 39 -131 11 -89 16 -108 38
-134 21 -25 38 -75 46 -140 4 -29 21 -75 42 -109 20 -36 37 -79 40 -108 4 -32
16 -61 34 -85 26 -31 49 -88 49 -119 0 -6 15 -31 34 -55 20 -27 36 -61 40 -88
4 -28 18 -57 40 -83 21 -24 36 -55 40 -80 4 -25 20 -56 40 -80 19 -21 36 -51
39 -66 3 -15 21 -47 40 -72 19 -25 37 -61 41 -81 4 -21 19 -48 37 -65 17 -16
37 -42 44 -59 7 -16 27 -45 43 -64 17 -19 33 -49 37 -67 3 -18 16 -41 28 -51
13 -10 37 -39 54 -64 17 -25 38 -51 47 -58 8 -7 20 -29 27 -49 6 -20 28 -55
48 -78 63 -70 86 -98 110 -134 26 -37 50 -65 108 -127 20 -21 43 -50 52 -64
31 -50 98 -123 293 -317 291 -292 330 -328 367 -347 19 -9 67 -49 108 -88 41
-40 87 -78 101 -86 29 -15 79 -55 127 -100 17 -16 41 -32 54 -36 13 -4 42 -24
65 -45 23 -21 58 -45 78 -53 20 -8 44 -27 53 -41 10 -14 24 -26 32 -26 22 0
76 -30 98 -55 11 -13 36 -28 56 -34 20 -6 47 -23 60 -37 26 -28 89 -64 112
-64 8 0 22 -9 32 -20 10 -11 45 -30 77 -42 32 -11 64 -29 71 -38 16 -22 43
-36 87 -44 19 -3 52 -22 73 -41 22 -20 48 -35 63 -35 32 0 79 -24 97 -50 13
-19 41 -26 108 -29 14 0 47 -17 72 -36 27 -21 62 -37 89 -41 48 -8 93 -27 123
-55 13 -12 44 -20 90 -25 56 -5 81 -14 122 -41 41 -27 66 -35 125 -42 45 -5
101 -20 143 -39 48 -21 99 -34 160 -41 50 -5 120 -21 156 -35 86 -32 200 -47
296 -39 76 7 77 8 33 14 -25 4 -65 12 -90 19 -89 22 -131 30 -170 30 -21 0
-42 5 -45 10 -3 6 -21 10 -40 10 -19 0 -36 4 -39 9 -3 5 -22 12 -41 15 -19 3
-51 9 -70 12 -19 3 -38 10 -41 15 -3 5 -19 9 -36 9 -31 0 -87 15 -120 31 -10
5 -27 9 -38 9 -11 0 -30 5 -43 12 -49 25 -58 28 -82 28 -14 0 -34 5 -45 10
-11 6 -29 15 -40 20 -11 6 -28 10 -38 10 -10 0 -22 3 -26 7 -10 10 -78 33
-101 33 -11 0 -31 7 -45 14 -31 18 -86 44 -120 58 -14 6 -33 14 -42 19 -10 5
-24 9 -31 9 -7 0 -38 13 -69 29 -31 15 -72 31 -92 34 -20 3 -51 16 -68 29 -47
33 -70 44 -110 52 -19 3 -44 16 -54 27 -18 20 -59 41 -103 54 -14 4 -43 21
-65 37 -23 16 -54 36 -71 44 -16 8 -48 25 -70 39 -22 14 -47 28 -55 32 -8 4
-31 19 -50 35 -19 15 -40 28 -47 28 -19 0 -52 20 -102 63 -24 20 -49 37 -56
37 -7 0 -18 6 -24 14 -7 8 -35 27 -64 42 -28 14 -83 54 -123 88 -39 33 -106
86 -148 116 -43 30 -95 71 -116 90 -21 19 -58 51 -81 70 -79 65 -214 187 -249
226 -20 22 -58 60 -85 86 -55 51 -198 198 -286 293 -30 33 -82 94 -115 136
-32 42 -96 122 -142 177 -45 55 -82 104 -82 107 0 6 -36 58 -138 195 -23 32
-42 63 -42 69 0 6 -4 11 -8 11 -5 0 -23 27 -42 60 -19 33 -37 60 -42 60 -4 0
-8 6 -8 14 0 7 -7 19 -15 26 -8 7 -27 37 -42 69 -15 31 -31 58 -35 61 -4 3
-29 48 -56 100 -27 52 -59 113 -72 135 -28 48 -42 76 -65 130 -9 22 -22 49
-27 60 -16 30 -24 45 -48 100 -12 28 -26 58 -31 67 -5 10 -9 25 -9 33 0 8 -4
15 -10 15 -5 0 -10 7 -10 15 0 8 -4 23 -9 33 -5 9 -14 31 -21 47 -7 17 -16 38
-21 47 -5 10 -9 27 -9 38 0 11 -4 20 -10 20 -5 0 -10 9 -10 20 0 20 -4 29 -28
77 -7 13 -12 30 -12 38 0 8 -5 25 -12 38 -25 48 -28 58 -28 81 0 14 -4 28 -10
31 -5 3 -10 17 -10 30 0 13 -4 27 -10 30 -5 3 -10 17 -10 30 0 13 -4 27 -10
30 -5 3 -10 14 -10 24 0 10 -7 24 -16 32 -10 8 -13 21 -9 37 3 13 2 29 -3 35
-9 11 -15 36 -29 115 -3 18 -9 35 -14 38 -5 3 -9 20 -9 38 0 18 -6 41 -14 52
-8 10 -12 29 -9 42 3 13 -1 30 -9 40 -8 9 -15 28 -16 42 -3 37 -19 154 -34
240 -19 111 -19 13817 0 13965 7 55 17 149 23 209 7 70 16 114 25 123 8 9 12
23 9 34 -4 10 1 29 9 41 9 12 16 35 16 50 0 15 5 30 10 33 6 3 10 22 10 42 0
36 14 91 31 125 5 10 9 27 9 38 0 12 9 40 20 62 11 23 20 50 20 59 0 10 5 31
11 46 6 15 15 37 20 48 4 11 10 36 14 56 3 21 12 42 20 49 8 7 15 22 15 34 0
12 9 46 20 75 11 30 17 57 15 62 -3 4 -1 10 5 14 5 3 19 27 31 53 11 26 27 60
35 76 7 15 10 35 6 42 -6 10 -16 3 -40 -28z"/>
<path d="M10988 19434 c-34 -17 -75 -27 -145 -34 -54 -6 -120 -14 -148 -20
-27 -5 -115 -21 -195 -36 -80 -14 -167 -32 -195 -39 -27 -7 -99 -25 -160 -40
-60 -14 -132 -32 -160 -40 -27 -7 -97 -25 -155 -40 -131 -33 -191 -52 -355
-110 -71 -25 -157 -55 -190 -66 -67 -23 -80 -28 -145 -58 -25 -11 -65 -27 -90
-36 -25 -9 -62 -27 -82 -40 -20 -13 -49 -27 -65 -31 -43 -11 -546 -260 -621
-308 -37 -24 -112 -67 -168 -96 -55 -28 -123 -69 -150 -90 -27 -22 -100 -74
-163 -117 -237 -162 -261 -179 -316 -223 -31 -25 -70 -55 -86 -67 -16 -12 -44
-34 -63 -50 -18 -16 -68 -52 -112 -79 -43 -26 -83 -53 -89 -59 -5 -6 -42 -37
-82 -69 -39 -31 -156 -145 -260 -253 -103 -107 -226 -227 -272 -266 -119 -101
-199 -183 -251 -256 -102 -143 -266 -357 -324 -422 -23 -25 -54 -66 -71 -90
-16 -24 -50 -70 -75 -102 -25 -32 -52 -68 -60 -80 -8 -12 -48 -66 -88 -119
-69 -93 -101 -145 -173 -283 -17 -33 -37 -67 -44 -75 -8 -8 -41 -69 -75 -135
-35 -66 -78 -146 -97 -177 -99 -166 -285 -577 -386 -853 -114 -314 -274 -880
-303 -1070 -3 -22 -10 -55 -16 -73 -17 -57 -88 -491 -108 -657 -55 -481 -59
-1063 -9 -1615 15 -168 28 -273 44 -365 44 -246 55 -326 55 -398 0 -75 1 -78
28 -88 18 -8 89 -9 212 -5 253 8 486 32 695 72 44 9 107 20 140 25 33 5 80 13
105 18 25 5 68 14 95 19 28 6 70 16 95 22 25 6 83 20 130 30 155 33 399 99
460 125 33 14 120 45 193 69 72 24 206 73 296 110 90 36 168 66 172 66 5 0 39
14 76 31 38 17 84 38 103 46 132 57 540 270 663 346 223 138 237 148 318 208
41 30 92 66 115 80 51 30 225 152 354 246 54 40 156 130 226 201 71 70 184
176 252 236 67 60 174 165 236 235 63 69 139 153 171 186 31 33 77 90 102 127
25 37 64 85 87 105 23 21 68 73 99 115 32 42 69 90 83 105 15 15 34 39 42 53
9 14 42 59 73 100 72 97 116 167 161 260 20 41 59 107 87 145 28 39 60 88 72
110 12 22 29 49 39 60 10 11 32 47 50 80 18 33 36 65 40 70 7 9 46 86 155 305
47 93 203 485 240 600 15 47 30 94 35 105 31 75 162 527 186 640 8 39 25 104
38 145 13 41 29 113 36 160 6 47 18 121 26 165 42 228 55 320 64 444 6 75 15
206 22 291 14 196 14 801 -1 985 -32 393 -41 478 -66 595 -8 36 -19 101 -25
145 -6 44 -16 98 -21 120 -6 22 -19 78 -29 125 -51 227 -135 540 -158 585 -27
53 -52 57 -124 19z m-393 -584 c24 -15 38 -18 62 -11 26 8 34 5 57 -19 14 -16
26 -33 26 -38 0 -5 9 -12 20 -15 11 -3 25 -16 30 -29 6 -12 22 -43 35 -68 13
-25 24 -60 24 -79 1 -19 7 -42 15 -50 16 -18 36 -106 36 -155 0 -19 6 -39 14
-45 15 -12 27 -101 31 -218 1 -40 7 -79 14 -87 7 -8 14 -58 17 -113 3 -54 8
-141 13 -193 17 -210 -23 -1270 -48 -1270 -3 0 -7 -30 -8 -67 -1 -36 -7 -69
-13 -73 -6 -3 -15 -47 -20 -96 -17 -150 -32 -239 -41 -244 -4 -3 -10 -21 -11
-40 -2 -19 -6 -38 -10 -41 -5 -3 -14 -48 -22 -101 -8 -53 -25 -118 -37 -145
-12 -26 -26 -64 -30 -83 -25 -108 -47 -189 -58 -215 -22 -51 -41 -119 -41
-146 0 -15 -7 -32 -15 -39 -8 -7 -15 -19 -15 -28 0 -18 -48 -142 -62 -158 -5
-7 -10 -29 -12 -49 -2 -22 -10 -42 -20 -47 -9 -5 -16 -19 -16 -31 0 -30 -38
-131 -50 -135 -6 -2 -10 -12 -10 -22 0 -9 -7 -23 -15 -30 -8 -7 -15 -23 -15
-36 0 -24 -80 -196 -104 -224 -7 -8 -16 -27 -19 -41 -4 -14 -17 -41 -31 -60
-13 -19 -48 -79 -76 -134 -63 -124 -119 -218 -136 -228 -7 -4 -15 -20 -19 -36
-3 -16 -15 -37 -26 -47 -10 -9 -19 -21 -19 -25 0 -10 -59 -96 -82 -121 -10
-10 -18 -26 -19 -35 0 -10 -16 -38 -35 -63 -18 -25 -54 -74 -79 -110 -111
-159 -143 -200 -222 -286 -13 -14 -23 -27 -23 -31 0 -3 -13 -21 -30 -40 -16
-18 -30 -38 -30 -43 0 -6 -5 -10 -10 -10 -12 0 -61 -54 -104 -114 -33 -45
-285 -306 -471 -485 -66 -64 -140 -135 -164 -158 -24 -24 -52 -43 -63 -43 -10
0 -26 -12 -35 -27 -9 -16 -43 -48 -76 -73 -32 -25 -78 -62 -102 -82 -23 -21
-46 -38 -50 -38 -4 0 -25 -16 -46 -35 -22 -19 -42 -35 -47 -35 -4 0 -12 -10
-17 -22 -6 -13 -20 -24 -33 -26 -41 -6 -68 -24 -185 -122 -23 -20 -62 -44 -87
-55 -25 -10 -56 -29 -71 -42 -14 -13 -29 -23 -34 -23 -4 0 -24 -12 -44 -27
-39 -31 -110 -66 -153 -77 -16 -3 -28 -12 -28 -19 0 -12 -15 -22 -82 -52 -21
-10 -38 -23 -38 -31 0 -8 -8 -14 -19 -14 -10 0 -30 -9 -44 -20 -14 -11 -39
-20 -55 -20 -16 0 -35 -7 -42 -15 -15 -19 -68 -45 -90 -45 -9 0 -29 -13 -45
-30 -18 -19 -39 -30 -55 -30 -34 0 -90 -19 -90 -31 0 -5 -9 -9 -20 -9 -11 0
-20 -4 -20 -8 0 -12 -92 -52 -118 -52 -11 0 -23 -4 -26 -9 -3 -4 -19 -11 -35
-14 -16 -3 -46 -18 -66 -32 -21 -14 -47 -25 -59 -25 -12 0 -30 -7 -40 -15 -11
-8 -31 -15 -45 -15 -14 0 -41 -9 -60 -21 -19 -11 -59 -25 -89 -29 -30 -5 -72
-18 -92 -29 -21 -11 -55 -23 -76 -27 -20 -4 -49 -13 -63 -20 -14 -8 -42 -14
-61 -14 -19 0 -44 -7 -54 -15 -11 -8 -34 -15 -52 -15 -18 0 -36 -4 -39 -10 -3
-5 -25 -10 -49 -10 -23 0 -47 -5 -52 -10 -12 -12 -133 -38 -214 -46 -30 -3
-60 -10 -66 -15 -6 -5 -14 -6 -17 -2 -4 3 -13 1 -20 -5 -7 -6 -65 -18 -128
-27 -63 -9 -122 -20 -131 -25 -11 -6 -19 -6 -23 0 -8 13 -72 13 -80 0 -4 -7
-11 -7 -18 -2 -27 21 -58 24 -78 6 -13 -12 -19 -13 -19 -4 0 7 -8 10 -20 7
-11 -3 -23 0 -28 7 -8 15 -42 30 -59 27 -7 -1 -21 14 -30 34 -18 37 -31 43
-51 23 -9 -9 -12 -5 -12 20 0 18 -3 32 -7 32 -12 0 -33 51 -33 79 0 13 -7 32
-15 41 -64 70 -108 810 -74 1250 28 375 59 641 86 745 8 33 19 87 23 120 19
147 67 367 129 598 12 43 19 82 16 87 -3 4 -2 10 2 12 5 1 24 51 42 111 19 59
39 107 43 107 4 0 8 10 8 23 0 26 110 346 144 422 22 47 44 107 50 136 3 14
24 57 46 95 22 38 40 74 40 81 0 18 217 447 252 499 15 23 28 49 28 58 0 9 5
16 10 16 6 0 10 4 10 9 0 6 14 30 30 54 17 25 30 47 30 50 0 4 14 26 30 50 17
25 30 48 30 51 0 3 18 32 40 63 22 32 40 63 40 69 0 6 16 29 35 50 20 21 38
49 41 61 4 13 22 40 41 60 34 38 93 119 93 130 0 3 21 27 46 53 26 27 51 57
58 68 21 37 51 78 111 150 33 40 70 87 83 104 12 18 46 57 75 89 64 70 97 114
97 128 0 6 6 11 14 11 13 0 32 19 174 178 41 45 80 82 88 82 8 0 14 5 14 10 0
13 89 110 101 110 14 0 129 113 129 127 0 7 5 13 11 13 6 0 29 16 50 35 22 19
45 35 52 35 6 0 38 29 70 65 32 36 64 65 72 65 7 0 27 16 44 35 17 19 36 35
43 35 8 0 31 18 53 40 22 23 50 45 63 50 12 5 22 16 22 25 0 8 8 15 18 15 16
0 77 41 191 127 13 10 34 25 46 33 12 8 95 63 183 123 88 59 165 107 171 107
6 0 11 7 11 15 0 8 8 15 19 15 10 0 30 9 44 20 14 11 29 20 34 20 5 0 22 14
38 30 16 17 37 30 47 30 20 0 86 39 106 63 7 8 21 13 31 10 10 -3 22 0 25 6 4
6 16 11 27 11 10 0 19 5 19 10 0 6 12 16 28 22 15 7 38 19 52 28 14 9 45 25
70 36 25 10 53 27 62 37 10 9 27 17 38 17 11 0 28 4 38 10 9 5 40 19 67 30 28
12 68 30 90 40 22 10 61 28 87 39 26 12 50 25 53 31 3 5 17 10 31 10 13 0 43
9 67 19 23 11 71 29 107 42 36 12 68 28 73 35 4 7 14 11 21 8 8 -3 33 4 57 15
23 12 49 21 56 21 7 0 13 4 13 9 0 5 8 7 19 4 10 -2 24 1 32 9 8 7 23 14 34
14 11 1 54 11 95 23 41 11 107 30 145 41 39 11 126 33 195 49 231 55 342 64
395 31z"/>
<path d="M12811 19451 c-15 -9 -14 -12 17 -126 34 -125 81 -364 122 -625 54
-346 72 -523 95 -920 24 -432 16 -805 -30 -1300 -25 -274 -74 -616 -124 -865
-61 -304 -99 -460 -150 -625 -11 -36 -40 -132 -64 -215 -25 -82 -59 -186 -75
-230 -17 -44 -58 -154 -91 -245 -34 -91 -67 -178 -75 -195 -29 -63 -49 -113
-78 -190 -56 -153 -78 -203 -206 -466 -71 -145 -147 -286 -168 -314 -60 -77
-103 -145 -204 -325 -128 -227 -268 -434 -480 -710 -99 -129 -189 -247 -199
-262 -9 -15 -41 -52 -70 -83 -28 -31 -86 -100 -128 -153 -88 -113 -586 -610
-718 -717 -49 -40 -135 -112 -189 -160 -55 -47 -132 -112 -173 -143 -128 -99
-149 -115 -231 -187 -61 -54 -284 -210 -425 -297 -68 -42 -206 -131 -253 -163
-68 -46 -111 -71 -382 -216 -201 -109 -466 -239 -486 -239 -2 0 -57 -25 -121
-55 -63 -30 -118 -55 -120 -55 -2 0 -29 -11 -59 -25 -30 -14 -61 -25 -68 -25
-7 0 -40 -14 -73 -32 -55 -29 -129 -57 -305 -118 -36 -13 -90 -32 -120 -42
-30 -11 -106 -35 -169 -54 -63 -20 -122 -39 -131 -44 -21 -11 -320 -90 -381
-101 -26 -4 -64 -12 -85 -19 -50 -14 -209 -46 -349 -70 -60 -10 -136 -24 -169
-30 -32 -6 -88 -15 -125 -20 -325 -40 -521 -67 -596 -84 -78 -16 -80 -30 -19
-137 26 -46 66 -118 89 -159 23 -41 55 -95 72 -120 17 -25 43 -67 58 -95 96
-173 127 -228 159 -278 20 -31 36 -59 36 -63 0 -8 83 -127 122 -174 16 -19 79
-102 139 -184 61 -83 124 -166 141 -185 16 -19 49 -64 72 -100 59 -92 159
-214 306 -375 69 -75 159 -175 201 -223 42 -47 83 -89 91 -94 8 -4 41 -9 74
-10 99 -4 562 20 684 36 63 8 153 19 200 25 240 30 322 42 515 75 287 49 543
102 733 151 53 14 151 39 217 55 66 17 156 42 200 56 44 13 130 40 190 59 93
28 151 48 320 109 11 4 34 13 50 20 17 7 57 24 90 38 127 53 224 97 320 145
55 27 135 63 178 81 42 17 112 45 155 62 109 44 222 102 449 231 250 141 355
207 820 521 51 34 133 88 182 120 110 71 211 150 361 282 25 22 72 63 105 90
33 28 87 75 120 106 33 31 89 81 125 110 103 85 323 298 396 385 87 103 253
275 330 342 33 29 85 85 115 124 30 39 83 107 118 152 36 44 78 100 94 123 15
24 50 66 76 95 26 29 60 74 75 101 16 26 57 76 92 112 35 35 64 71 64 78 0 13
21 47 170 273 36 54 75 113 85 131 11 18 47 76 80 130 33 54 65 107 71 118
103 186 143 262 232 435 57 113 108 210 112 215 24 30 126 252 174 377 30 78
74 193 99 253 24 61 59 155 77 210 18 55 49 136 68 180 80 187 186 538 266
885 77 335 165 855 186 1100 58 694 63 1338 15 1833 -8 84 -19 199 -25 257 -6
58 -15 134 -20 170 -5 36 -19 135 -30 220 -12 85 -30 196 -41 245 -11 50 -35
162 -53 250 -36 173 -75 332 -106 435 -11 36 -31 110 -46 165 -14 55 -41 137
-60 183 -18 46 -41 117 -50 159 -14 63 -24 84 -57 120 -41 45 -90 73 -163 92
-22 6 -61 24 -86 41 -25 17 -70 39 -99 49 -30 10 -86 33 -126 50 -213 92 -500
182 -858 271 -409 100 -597 138 -800 160 -44 5 -116 21 -159 35 -84 27 -113
30 -135 16z m879 -644 c124 -10 171 -17 190 -27 10 -5 31 -10 47 -10 15 0 68
-13 118 -29 49 -16 131 -41 180 -56 135 -41 335 -128 335 -146 0 -5 8 -9 19
-9 20 0 46 -12 96 -45 42 -28 203 -185 220 -215 47 -88 95 -194 95 -213 0 -12
8 -38 18 -57 11 -19 17 -41 15 -48 -3 -7 5 -28 16 -47 23 -39 85 -276 83 -314
-1 -13 2 -29 7 -35 8 -11 30 -99 50 -206 5 -30 15 -104 21 -165 14 -143 32
-235 45 -235 5 0 4 -4 -3 -9 -11 -7 -11 -16 -2 -47 12 -43 33 -251 55 -559 16
-221 21 -1110 6 -1119 -4 -3 -11 -88 -15 -188 -4 -101 -11 -219 -16 -263 -5
-44 -12 -127 -15 -185 -4 -58 -10 -114 -15 -125 -12 -29 -29 -111 -35 -175
-15 -154 -19 -175 -27 -181 -4 -3 -9 -31 -11 -62 -1 -31 -4 -57 -7 -57 -10 0
-30 -83 -35 -140 -8 -87 -17 -135 -27 -141 -5 -3 -10 -21 -12 -40 -2 -19 -6
-41 -8 -49 -3 -8 -10 -31 -17 -51 -6 -19 -11 -49 -11 -67 0 -17 -4 -34 -10
-37 -5 -3 -10 -14 -10 -24 0 -10 -7 -32 -16 -50 -8 -17 -14 -37 -11 -44 2 -6
-2 -18 -10 -25 -7 -7 -13 -26 -13 -41 0 -39 -29 -143 -45 -161 -7 -8 -16 -33
-20 -55 -10 -55 -27 -107 -42 -126 -7 -8 -13 -27 -13 -41 0 -14 -7 -31 -15
-38 -8 -7 -15 -23 -15 -36 0 -12 -4 -26 -10 -29 -5 -3 -10 -17 -10 -31 0 -14
-8 -41 -18 -62 -11 -20 -25 -58 -32 -84 -7 -26 -21 -56 -31 -67 -10 -11 -19
-32 -19 -46 0 -28 -15 -61 -37 -83 -7 -7 -13 -21 -13 -31 0 -9 -7 -26 -15 -37
-8 -10 -15 -31 -15 -47 0 -15 -4 -35 -10 -45 -26 -47 -70 -146 -70 -157 0 -7
-11 -29 -26 -50 -14 -21 -32 -58 -40 -84 -23 -70 -85 -192 -100 -198 -8 -3
-14 -11 -14 -19 0 -7 -11 -30 -25 -50 -14 -20 -25 -43 -25 -51 0 -19 -78 -169
-95 -183 -8 -7 -15 -18 -15 -25 0 -7 -7 -18 -15 -25 -8 -7 -19 -29 -25 -50 -6
-20 -24 -53 -40 -71 -16 -19 -34 -49 -40 -68 -5 -19 -22 -50 -38 -70 -16 -20
-36 -50 -45 -67 -9 -17 -35 -60 -59 -97 -24 -36 -54 -84 -68 -107 -14 -23 -33
-51 -42 -63 -10 -11 -18 -31 -18 -44 0 -15 -8 -27 -24 -32 -21 -9 -47 -42 -84
-109 -8 -13 -20 -26 -28 -29 -8 -3 -14 -13 -14 -22 0 -10 -11 -27 -24 -40 -13
-12 -32 -39 -42 -61 -10 -21 -27 -41 -36 -43 -9 -3 -28 -28 -43 -57 -15 -29
-34 -54 -43 -57 -9 -2 -26 -22 -36 -43 -10 -22 -43 -62 -72 -91 -30 -28 -54
-58 -55 -67 0 -9 -20 -33 -43 -52 -24 -19 -63 -62 -87 -95 -49 -67 -97 -115
-116 -115 -6 0 -28 -24 -47 -52 -45 -67 -77 -103 -105 -117 -11 -7 -21 -18
-21 -25 0 -7 -41 -53 -91 -102 -49 -49 -96 -100 -102 -113 -7 -15 -25 -28 -44
-33 -20 -5 -38 -19 -47 -36 -23 -43 -177 -182 -202 -182 -13 0 -54 -43 -54
-55 0 -14 -85 -95 -100 -95 -5 0 -36 -27 -67 -60 -32 -33 -65 -60 -75 -60 -9
0 -42 -29 -74 -65 -32 -36 -63 -65 -70 -65 -6 0 -19 -9 -29 -20 -10 -11 -23
-20 -30 -20 -7 0 -20 -9 -29 -19 -10 -11 -24 -17 -32 -14 -8 3 -18 -5 -25 -21
-7 -14 -26 -32 -44 -40 -20 -10 -32 -23 -31 -33 1 -12 -9 -19 -35 -23 -20 -4
-55 -21 -77 -38 -22 -18 -43 -32 -47 -32 -4 0 -16 -11 -27 -25 -26 -33 -102
-85 -124 -85 -10 0 -24 -7 -33 -15 -49 -45 -75 -65 -88 -65 -8 0 -28 -14 -43
-30 -16 -17 -42 -33 -60 -36 -17 -4 -37 -15 -43 -25 -7 -11 -19 -19 -29 -19
-9 0 -19 -4 -22 -9 -15 -23 -195 -131 -220 -131 -16 -1 -56 -36 -56 -49 0 -6
-13 -11 -30 -11 -20 0 -42 -12 -72 -40 -24 -22 -52 -40 -63 -40 -11 0 -31 -7
-45 -15 -57 -32 -116 -59 -126 -57 -6 1 -29 -14 -51 -33 -23 -19 -49 -35 -60
-35 -10 -1 -36 -9 -58 -20 -22 -11 -50 -19 -62 -20 -13 0 -23 -5 -23 -10 0 -6
-44 -31 -97 -56 -54 -25 -109 -51 -123 -59 -14 -7 -42 -16 -62 -20 -21 -4 -44
-17 -54 -30 -14 -19 -21 -22 -37 -13 -14 7 -22 7 -26 -1 -4 -6 -30 -19 -58
-29 -28 -10 -57 -23 -65 -29 -7 -6 -24 -14 -38 -18 -14 -4 -45 -16 -70 -27
-24 -11 -61 -23 -82 -26 -21 -2 -38 -9 -38 -13 0 -5 -9 -9 -20 -9 -11 0 -20
-3 -20 -8 0 -10 -73 -32 -108 -32 -16 0 -40 -8 -53 -19 -26 -20 -102 -46 -164
-57 -22 -4 -44 -10 -50 -14 -5 -3 -30 -12 -55 -20 -25 -7 -54 -18 -65 -24 -11
-6 -36 -11 -55 -12 -48 -2 -132 -22 -144 -34 -6 -6 -23 -10 -38 -10 -16 0 -36
-4 -46 -9 -9 -5 -39 -14 -67 -20 -27 -5 -79 -17 -115 -25 -36 -8 -92 -17 -124
-21 -33 -3 -64 -9 -70 -14 -14 -11 -117 -33 -124 -26 -3 3 -11 0 -18 -6 -7 -6
-39 -12 -71 -15 -89 -6 -146 -14 -168 -24 -19 -8 -209 -36 -420 -61 -127 -15
-447 -14 -489 1 -17 7 -40 16 -51 20 -11 5 -37 11 -57 13 -74 11 -168 68 -242
147 -26 28 -59 55 -72 60 -13 5 -24 15 -24 22 0 7 -30 44 -66 83 -36 38 -68
82 -71 97 -4 19 -12 28 -24 28 -11 0 -19 3 -19 8 0 4 -23 34 -52 67 -28 33
-57 75 -65 93 -7 17 -18 32 -23 32 -6 0 -10 5 -10 12 0 6 -7 18 -15 27 -64 69
-75 83 -75 96 0 8 -4 15 -10 15 -5 0 -10 8 -10 18 0 10 -11 28 -25 40 -14 12
-25 30 -25 39 0 10 -10 27 -22 38 -31 28 -48 60 -48 90 0 14 -10 35 -22 47
-15 15 -21 32 -20 58 2 20 -4 49 -12 65 -17 33 -13 45 15 45 10 0 19 7 19 15
0 28 24 65 42 65 10 0 18 5 18 10 0 6 7 10 16 10 9 0 18 9 21 21 4 15 8 17 14
8 6 -11 14 -8 33 10 17 16 31 21 45 16 14 -4 23 -1 27 9 8 20 106 48 139 40
14 -3 31 -2 38 4 6 5 38 18 70 28 31 10 57 21 57 26 0 4 13 5 30 2 17 -4 36
-1 44 5 8 7 25 9 38 6 16 -4 29 -1 37 9 7 8 19 12 26 10 7 -3 23 0 35 6 23 13
168 51 265 70 33 6 72 20 87 31 15 10 36 19 47 19 11 0 23 5 26 10 3 6 19 10
36 10 16 0 29 4 29 10 0 5 6 7 14 4 7 -3 30 2 51 10 21 9 45 16 54 16 9 0 43
14 76 30 33 17 72 30 88 30 32 0 67 16 83 38 6 9 18 13 27 9 9 -3 19 -2 22 3
4 6 17 10 31 10 26 0 98 33 109 50 3 5 17 10 30 10 13 0 27 5 30 10 3 6 22 10
42 10 26 0 47 9 78 34 23 19 64 41 91 47 27 7 60 18 74 26 14 7 31 13 38 13 6
0 12 5 12 10 0 6 7 10 16 10 9 0 28 6 42 14 15 8 46 22 69 31 23 10 44 24 47
31 3 8 16 14 29 14 14 0 36 9 50 20 14 11 29 20 35 20 20 0 258 125 279 147
12 13 33 23 46 23 13 0 32 9 42 20 10 11 24 20 31 20 25 0 82 33 87 50 3 10
19 21 36 25 17 4 44 17 59 29 15 13 41 26 57 30 17 4 38 16 47 26 10 11 25 16
37 13 14 -4 24 3 35 26 17 32 50 56 65 46 5 -3 27 11 48 30 21 19 42 35 47 35
5 0 24 11 42 25 18 14 37 25 42 25 5 0 17 9 27 20 10 11 24 20 32 20 7 0 13 4
13 10 0 5 19 20 41 32 68 38 75 42 121 82 23 20 59 46 78 56 19 10 57 41 85
69 27 28 57 51 67 51 9 0 20 5 23 11 4 5 18 14 31 19 13 5 24 18 24 28 0 23
19 42 35 36 7 -3 16 -1 20 5 3 6 15 11 26 11 10 0 19 6 19 14 0 7 18 28 40 46
22 18 40 41 40 51 0 15 7 19 32 19 23 0 40 10 67 38 57 59 156 149 187 169 36
22 73 64 74 81 0 6 7 12 15 12 8 0 31 18 51 40 20 22 44 40 53 40 16 0 61 50
61 67 0 19 76 77 98 74 16 -2 22 3 22 17 0 10 18 34 40 53 22 19 40 42 40 51
0 11 14 23 33 32 21 8 50 37 79 77 25 35 58 75 73 89 15 14 38 42 51 63 17 26
31 37 48 37 18 0 28 10 41 38 10 20 34 55 54 78 93 106 211 252 211 262 0 4
20 28 45 52 25 24 45 49 45 55 0 6 11 22 25 35 14 13 29 38 33 54 7 24 13 30
30 28 15 -2 22 2 22 14 0 22 106 181 131 197 10 6 19 17 19 24 0 7 18 39 40
70 22 32 40 66 40 76 0 9 6 17 13 17 19 0 80 66 75 81 -2 7 14 41 36 76 70
107 84 131 91 155 4 13 17 34 30 48 31 35 50 72 46 93 -1 11 5 20 16 23 18 5
53 55 53 76 0 6 6 16 14 22 8 6 28 38 46 71 17 33 49 92 71 130 33 60 170 333
223 447 10 20 15 41 12 46 -3 5 3 17 14 27 11 10 20 28 20 40 0 13 7 28 15 35
8 7 15 17 15 22 0 5 14 39 30 76 17 36 29 71 26 79 -3 7 -1 13 4 13 4 0 14 17
21 38 6 20 15 42 19 47 8 11 38 88 75 195 21 61 47 124 66 162 5 10 9 36 9 58
0 22 4 40 8 40 13 0 33 50 26 61 -3 6 0 18 8 27 8 9 28 62 45 117 17 55 39
125 48 155 10 30 21 71 25 90 5 19 22 87 40 150 29 110 38 146 75 305 100 432
182 1022 215 1540 14 207 7 905 -11 1185 -17 270 -21 652 -7 680 20 42 71 90
93 90 12 0 30 9 40 20 11 13 22 17 29 11 6 -5 40 -11 76 -14z"/>
<path d="M5977 8234 c-4 -4 -4 -11 -1 -16 6 -10 24 -1 24 13 0 10 -14 12 -23
3z"/>
<path d="M23917 15493 c3 -1726 7 -3140 9 -3142 2 -2 4 1409 4 3137 0 1767 -4
3142 -9 3142 -5 0 -6 -1370 -4 -3137z"/>
<path d="M17270 17290 c-8 -15 -8 -41 1 -93 6 -39 15 -106 19 -147 5 -41 13
-113 19 -160 6 -47 15 -128 21 -180 46 -466 45 -439 45 -1005 -1 -363 -5 -593
-13 -675 -7 -69 -17 -186 -22 -260 -10 -141 -30 -324 -56 -520 -9 -63 -22
-166 -29 -228 -7 -61 -18 -136 -24 -165 -31 -153 -63 -319 -91 -462 -16 -88
-46 -223 -64 -300 -56 -226 -114 -451 -132 -508 -47 -149 -87 -265 -129 -372
-195 -502 -237 -608 -257 -649 -11 -22 -35 -82 -54 -135 -38 -106 -128 -309
-182 -411 -19 -36 -68 -130 -109 -210 -162 -312 -204 -391 -299 -555 -53 -93
-110 -192 -126 -220 -106 -184 -357 -552 -501 -734 -45 -57 -116 -152 -157
-210 -41 -59 -98 -134 -127 -167 -90 -102 -175 -205 -278 -334 -150 -188 -856
-892 -1047 -1044 -81 -64 -150 -121 -153 -126 -3 -6 -50 -42 -103 -81 -53 -39
-126 -99 -162 -134 -36 -34 -94 -84 -130 -111 -36 -26 -81 -62 -100 -80 -19
-18 -109 -81 -200 -141 -91 -61 -265 -177 -388 -259 -123 -82 -242 -160 -265
-173 -23 -13 -58 -34 -77 -46 -19 -12 -93 -53 -165 -90 -71 -37 -162 -87 -201
-111 -39 -23 -150 -81 -245 -127 -96 -46 -210 -102 -255 -124 -45 -22 -99 -46
-120 -53 -21 -7 -106 -45 -189 -85 -82 -41 -226 -103 -320 -140 -93 -37 -195
-78 -225 -92 -65 -31 -394 -140 -565 -189 -66 -18 -174 -49 -240 -69 -388
-116 -598 -163 -808 -181 -75 -6 -87 -17 -71 -63 11 -32 47 -49 214 -106 69
-24 193 -70 275 -103 138 -56 385 -138 530 -177 33 -9 78 -22 100 -30 94 -32
526 -137 715 -174 198 -38 521 -91 685 -111 320 -39 1179 -38 1475 1 203 26
570 81 695 103 120 21 569 131 804 196 234 65 683 231 856 316 83 40 175 83
205 94 72 28 213 99 325 164 50 29 114 65 144 80 30 16 66 36 80 46 14 10 82
50 151 90 69 40 179 112 245 159 66 48 136 98 155 111 19 13 101 76 182 140
81 63 177 137 215 165 64 46 231 178 298 235 16 14 43 40 60 58 16 18 145 149
285 290 141 142 281 289 312 327 30 39 65 79 78 90 35 31 104 124 140 190 19
33 47 76 64 96 60 70 71 84 100 129 16 25 31 47 35 50 18 14 110 129 136 170
17 26 51 79 76 116 59 88 128 204 195 324 29 52 80 140 113 195 77 128 166
308 225 457 26 64 59 138 74 165 36 65 89 202 186 488 203 594 287 988 396
1860 33 264 36 1034 5 1200 -8 44 -15 109 -15 145 0 36 -7 106 -15 155 -9 50
-20 128 -25 175 -12 120 -36 270 -58 375 -11 50 -25 119 -31 155 -18 100 -30
153 -72 315 -113 432 -136 505 -252 815 -27 74 -61 164 -74 200 -13 36 -57
133 -97 215 -41 83 -106 215 -145 295 -127 259 -194 378 -360 642 -132 208
-294 434 -470 652 -53 65 -118 151 -146 190 -71 103 -82 115 -233 275 -75 78
-146 156 -157 172 -17 24 -69 59 -89 59 -3 0 -10 -9 -16 -20z m704 -1700 c37
0 96 -25 96 -41 0 -9 7 -19 15 -23 8 -3 15 -12 15 -19 0 -8 6 -20 14 -27 8 -6
12 -18 10 -25 -3 -7 3 -18 15 -24 11 -6 21 -23 23 -38 2 -22 9 -29 31 -31 21
-3 27 -9 27 -27 0 -13 5 -27 11 -30 5 -4 15 -17 20 -28 5 -12 18 -35 29 -52
29 -45 222 -431 249 -500 13 -33 35 -84 48 -114 24 -53 29 -66 73 -186 12 -33
26 -64 31 -69 5 -6 9 -19 9 -29 0 -10 7 -33 14 -50 27 -59 56 -151 56 -178 0
-15 6 -34 13 -41 24 -24 127 -387 127 -446 0 -11 7 -25 15 -32 9 -7 15 -29 15
-54 0 -23 4 -46 9 -51 12 -12 57 -228 67 -315 3 -36 11 -73 15 -82 5 -9 5 -18
0 -20 -9 -3 8 -119 18 -128 3 -3 7 -34 9 -70 6 -134 21 -250 32 -250 14 0 23
-260 24 -693 1 -241 -1 -441 -4 -443 -7 -7 -12 -83 -10 -161 1 -40 -3 -73 -8
-73 -5 0 -14 -69 -21 -152 -6 -84 -16 -183 -21 -221 -6 -37 -10 -79 -10 -94 0
-14 -7 -34 -15 -43 -9 -10 -17 -45 -20 -91 -3 -41 -9 -94 -15 -119 -31 -148
-43 -196 -51 -206 -5 -6 -12 -39 -15 -73 -4 -34 -11 -64 -15 -67 -5 -3 -9 -19
-9 -35 0 -17 -6 -37 -14 -45 -8 -8 -18 -40 -21 -71 -4 -32 -14 -65 -22 -75 -8
-9 -16 -36 -17 -60 -4 -51 -102 -356 -123 -380 -8 -9 -18 -31 -23 -50 -22 -87
-42 -153 -49 -162 -5 -6 -12 -22 -16 -36 -4 -14 -18 -49 -31 -78 -13 -29 -24
-57 -24 -63 0 -6 -9 -22 -20 -36 -11 -14 -20 -32 -20 -39 0 -8 -4 -22 -9 -32
-6 -9 -18 -37 -29 -62 -36 -84 -213 -435 -247 -490 -19 -30 -38 -64 -44 -75
-5 -11 -21 -37 -35 -58 -14 -21 -26 -40 -26 -43 0 -3 -17 -31 -37 -64 -21 -32
-47 -73 -58 -91 -11 -18 -28 -45 -37 -59 -10 -14 -21 -32 -25 -40 -3 -8 -17
-28 -30 -43 -13 -16 -23 -37 -23 -48 0 -10 -4 -19 -9 -19 -13 0 -71 -53 -71
-65 0 -20 -76 -131 -147 -214 -18 -21 -33 -48 -33 -60 0 -12 -6 -21 -14 -21
-8 0 -17 -9 -21 -20 -3 -10 -25 -36 -49 -57 -24 -21 -51 -56 -62 -78 -16 -36
-88 -115 -104 -115 -3 0 -25 -28 -48 -63 -23 -34 -55 -76 -72 -92 -16 -16 -30
-34 -30 -41 0 -6 -9 -14 -20 -17 -11 -3 -20 -12 -20 -21 0 -9 -4 -16 -9 -16
-13 0 -111 -94 -111 -106 0 -5 -14 -18 -30 -29 -16 -11 -30 -26 -30 -32 0 -7
-4 -13 -10 -13 -16 0 -90 -71 -90 -86 0 -8 -7 -14 -15 -14 -9 0 -18 -8 -22
-17 -9 -25 -44 -63 -59 -63 -6 0 -14 -7 -18 -15 -3 -8 -15 -15 -26 -15 -11 0
-20 -7 -20 -16 0 -21 -66 -81 -115 -104 -22 -10 -54 -33 -71 -52 -48 -52 -111
-108 -123 -108 -6 0 -15 -9 -21 -20 -6 -11 -17 -20 -26 -20 -8 0 -46 -30 -85
-67 -43 -41 -86 -73 -110 -82 -25 -8 -45 -23 -51 -37 -6 -14 -22 -27 -35 -31
-14 -3 -28 -16 -33 -29 -6 -13 -21 -26 -37 -30 -15 -4 -49 -22 -75 -41 -26
-18 -54 -33 -61 -33 -7 0 -23 -11 -35 -25 -12 -14 -26 -25 -32 -25 -5 0 -10
-6 -10 -14 0 -8 -12 -17 -26 -20 -23 -6 -106 -59 -145 -92 -8 -8 -23 -14 -32
-14 -8 0 -29 -13 -45 -30 -17 -16 -39 -30 -50 -30 -11 0 -25 -7 -32 -15 -7 -8
-18 -15 -25 -15 -7 0 -15 -7 -19 -15 -3 -8 -14 -15 -25 -15 -11 0 -23 -5 -26
-10 -3 -6 -15 -10 -26 -10 -11 0 -22 -7 -25 -15 -4 -8 -12 -15 -19 -15 -7 0
-16 -7 -19 -15 -3 -9 -11 -15 -18 -14 -12 3 -95 -30 -128 -51 -21 -13 -137
-69 -245 -119 -49 -23 -107 -51 -128 -62 -22 -10 -43 -19 -48 -19 -4 0 -32
-11 -61 -24 -29 -14 -66 -28 -81 -31 -15 -4 -30 -11 -33 -16 -3 -5 -12 -9 -19
-9 -8 0 -38 -11 -67 -24 -46 -21 -123 -47 -153 -51 -5 -1 -27 -9 -47 -18 -21
-9 -45 -17 -54 -17 -10 0 -25 -6 -33 -13 -9 -7 -36 -19 -61 -26 -25 -8 -81
-25 -125 -39 -44 -14 -90 -25 -103 -24 -13 1 -33 -5 -45 -13 -23 -15 -141 -43
-211 -50 -22 -3 -42 -8 -45 -13 -3 -4 -33 -14 -66 -21 -33 -7 -69 -15 -80 -18
-11 -2 -47 -8 -80 -13 -33 -5 -85 -16 -115 -24 -30 -9 -82 -17 -115 -19 -33
-1 -62 -5 -65 -8 -7 -10 -211 -39 -266 -39 -25 0 -83 -7 -129 -16 -64 -13 -93
-14 -124 -7 -31 8 -43 8 -51 -2 -6 -8 -19 -14 -28 -14 -9 0 -105 -5 -212 -11
-259 -15 -692 -5 -920 21 -96 11 -195 22 -219 24 -24 3 -50 10 -57 15 -6 6
-23 8 -36 5 -20 -5 -77 5 -203 36 -22 6 -53 13 -70 16 -16 3 -37 11 -45 18 -8
7 -36 16 -62 20 -27 4 -48 10 -48 14 0 4 -12 14 -27 22 -16 8 -39 24 -52 35
-20 19 -22 27 -16 63 6 37 12 44 51 62 24 12 44 25 44 30 0 5 6 9 13 9 8 0 22
9 32 20 10 11 22 20 27 20 4 0 17 8 27 18 41 36 51 42 75 42 13 0 27 7 30 16
3 9 12 14 20 11 8 -3 57 16 110 43 53 27 106 52 118 56 20 6 58 23 188 83 42
19 95 53 98 62 2 5 8 7 13 3 14 -8 149 58 149 74 0 7 5 10 10 7 14 -9 150 56
150 71 0 7 8 10 20 7 14 -4 20 0 20 10 0 10 6 13 18 10 10 -2 24 3 31 11 8 9
19 16 26 16 6 0 20 9 30 20 10 11 27 20 37 20 10 0 31 11 46 25 15 14 34 25
43 25 17 0 42 12 124 61 28 16 68 38 90 50 22 11 65 35 95 54 30 19 74 44 98
56 23 12 42 27 42 33 0 14 41 36 65 36 8 0 30 14 49 30 18 17 49 37 67 45 19
9 46 23 60 33 15 9 48 31 74 47 26 17 61 42 78 56 18 14 48 33 67 42 19 9 43
25 52 36 10 12 24 21 32 21 8 0 34 20 58 45 24 24 49 45 57 45 19 0 121 69
128 86 3 8 10 14 15 14 6 0 27 13 47 29 21 17 49 35 64 42 15 7 32 25 39 41 7
15 20 28 28 28 24 0 78 37 84 58 4 13 19 22 42 27 23 4 38 13 41 25 3 10 24
31 46 47 23 15 48 36 55 46 8 10 31 29 53 42 21 14 71 59 111 100 40 41 77 75
83 75 5 0 24 13 40 28 17 15 42 37 57 48 15 12 71 62 125 112 54 50 116 105
139 124 23 18 50 45 60 59 10 14 51 54 89 88 39 35 75 71 80 81 6 9 39 43 75
73 35 31 71 71 80 89 8 18 27 38 41 45 13 7 54 45 89 85 35 40 93 101 127 135
35 34 63 69 63 77 0 9 6 16 13 16 6 0 23 16 37 36 13 20 37 46 52 57 15 12 28
27 28 35 0 7 34 46 75 87 41 40 75 79 75 87 0 8 11 24 24 37 13 12 32 40 42
61 11 22 26 40 35 40 9 0 22 12 28 28 6 15 34 51 61 80 28 29 50 59 50 67 0
15 45 65 60 65 5 0 17 17 26 38 10 20 30 52 46 70 15 18 28 40 28 48 0 18 18
37 42 47 9 3 28 28 42 54 13 26 33 57 45 67 12 11 21 25 21 32 0 7 18 30 40
50 25 23 42 49 46 70 3 19 24 53 45 76 21 24 39 53 39 65 0 14 6 23 15 23 8 0
15 6 15 13 0 6 12 23 25 36 14 13 25 29 25 37 0 8 4 14 10 14 5 0 16 15 23 33
8 17 24 41 36 51 12 11 24 37 27 58 4 23 12 38 20 38 8 0 14 6 14 14 0 7 6 19
13 25 8 6 19 29 26 51 6 22 16 40 20 40 5 0 23 27 40 59 17 33 42 71 56 85 14
14 25 36 25 49 0 12 4 27 9 33 19 21 81 147 81 165 0 10 6 19 14 19 7 0 16 8
20 18 3 9 10 24 15 32 13 18 219 442 256 525 15 33 36 78 48 100 11 22 24 47
27 55 4 8 15 29 24 47 9 17 16 36 16 42 0 6 11 35 25 63 14 29 23 58 21 65 -3
6 11 32 30 58 20 25 34 51 31 58 -2 6 12 47 31 92 18 44 38 96 44 115 5 19 14
40 18 45 5 6 20 46 35 90 14 44 32 94 39 110 7 17 26 66 41 110 14 44 32 94
39 110 7 17 23 64 35 105 13 41 27 89 32 105 105 333 124 398 150 515 7 30 17
60 22 67 5 7 9 34 10 61 1 27 7 55 13 63 10 13 20 54 44 174 4 22 29 141 54
265 26 124 48 249 49 277 1 29 5 53 8 53 4 0 9 17 12 38 3 20 15 98 26 172 11
74 31 230 45 345 14 116 28 230 32 255 3 25 7 68 9 95 15 208 27 338 35 386 6
30 10 72 10 92 0 20 5 37 10 37 6 0 10 11 10 25 0 14 -4 25 -9 25 -10 0 -3 38
9 55 4 6 10 41 14 80 4 38 11 74 15 80 5 5 11 26 15 46 4 21 13 42 21 49 8 7
15 20 15 29 1 13 5 11 19 -6 11 -13 26 -23 35 -23z"/>
<path d="M23919 8960 c-6 -3252 -13 -4033 -38 -4064 -10 -13 -19 -55 -31 -146
-9 -67 -15 -100 -30 -160 -5 -19 -14 -62 -20 -95 -7 -33 -17 -70 -22 -82 -6
-12 -8 -33 -6 -47 3 -15 0 -31 -8 -37 -8 -6 -14 -20 -14 -30 0 -10 -4 -21 -10
-24 -5 -3 -10 -16 -10 -28 0 -12 -9 -47 -20 -77 -11 -30 -20 -64 -20 -76 0
-12 -9 -39 -19 -61 -28 -57 -61 -143 -61 -162 0 -9 -9 -27 -20 -41 -11 -14
-20 -31 -20 -38 0 -7 -4 -20 -9 -30 -25 -49 -32 -70 -29 -83 1 -8 -7 -28 -20
-46 -12 -17 -22 -37 -22 -45 0 -7 -9 -24 -20 -38 -11 -14 -20 -32 -20 -42 0
-9 -8 -33 -19 -55 -79 -163 -159 -315 -172 -328 -5 -5 -9 -16 -9 -25 0 -9 -9
-25 -20 -35 -11 -10 -20 -26 -20 -37 0 -10 -4 -18 -8 -18 -7 0 -28 -33 -69
-111 -7 -15 -20 -32 -28 -39 -8 -7 -15 -18 -15 -26 0 -19 -41 -87 -62 -102
-10 -7 -18 -19 -18 -26 0 -7 -9 -21 -20 -31 -11 -10 -20 -26 -20 -35 0 -10 -6
-20 -14 -23 -8 -3 -22 -21 -31 -40 -9 -20 -39 -59 -66 -89 -27 -29 -49 -56
-49 -61 0 -11 -68 -107 -100 -142 -16 -16 -52 -61 -82 -100 -80 -104 -113
-139 -358 -385 -220 -221 -345 -340 -356 -340 -3 0 -23 -17 -44 -37 -22 -21
-62 -56 -91 -78 -28 -22 -68 -55 -88 -73 -20 -19 -63 -52 -96 -75 -33 -22 -61
-44 -63 -49 -2 -4 -8 -8 -13 -8 -5 0 -32 -18 -61 -40 -29 -22 -56 -40 -60 -40
-4 0 -31 -18 -60 -40 -29 -22 -56 -40 -60 -40 -4 0 -31 -18 -60 -40 -29 -22
-57 -40 -62 -40 -6 0 -19 -9 -30 -19 -20 -19 -73 -49 -203 -116 -34 -18 -69
-37 -77 -44 -16 -14 -228 -121 -239 -121 -13 0 -102 -44 -115 -57 -7 -7 -25
-16 -40 -19 -35 -7 -54 -15 -131 -53 -35 -17 -70 -31 -78 -31 -7 0 -21 -4 -31
-9 -9 -5 -28 -13 -42 -18 -14 -6 -45 -20 -68 -32 -24 -11 -54 -21 -67 -21 -13
0 -27 -4 -30 -10 -3 -5 -15 -10 -26 -10 -19 0 -28 -4 -76 -28 -13 -7 -32 -12
-42 -12 -11 0 -23 -4 -26 -10 -3 -5 -16 -10 -27 -10 -25 0 -65 -12 -168 -51
-41 -16 -87 -29 -102 -29 -15 0 -30 -4 -33 -10 -3 -5 -19 -10 -34 -10 -32 0
-112 -26 -121 -39 -3 -5 -48 -14 -100 -20 -141 -16 -252 -35 -274 -48 -17 -9
-10 -12 45 -18 84 -8 181 7 260 40 45 19 93 30 163 36 86 8 106 14 155 43 46
28 70 35 134 40 74 7 126 25 167 61 8 7 44 16 79 20 45 5 85 18 129 42 35 19
85 37 112 40 28 3 58 14 70 25 21 20 97 57 116 58 7 0 34 15 62 34 32 21 68
36 99 40 32 4 57 14 69 27 24 26 59 44 104 54 19 4 49 20 67 35 17 15 49 33
70 40 21 7 47 22 57 32 20 21 92 57 115 58 7 0 29 16 48 35 19 19 43 35 53 35
10 0 37 17 59 39 22 21 53 42 68 46 15 3 44 22 65 41 21 19 42 34 47 34 5 0
31 18 57 40 27 23 60 43 74 47 14 3 39 21 56 39 18 19 36 34 42 34 6 0 32 18
57 40 25 22 49 40 53 40 4 0 38 30 76 66 38 37 84 77 101 89 74 50 143 114
402 373 162 162 273 281 273 292 0 10 34 54 77 97 42 43 83 89 92 103 39 61
93 129 106 134 8 3 26 29 39 58 13 29 37 66 55 82 17 17 31 36 31 44 0 8 18
34 40 58 22 24 40 52 40 63 0 11 18 41 40 66 22 25 40 52 40 60 0 20 43 83 60
88 8 2 23 26 32 54 10 27 29 66 43 87 14 20 25 45 25 54 0 9 9 28 20 42 11 14
20 30 20 35 0 6 9 16 20 23 12 7 20 23 20 41 0 17 16 53 40 89 22 33 40 70 40
83 0 13 9 35 20 49 11 14 20 31 20 38 0 6 6 12 14 12 18 0 26 22 26 72 0 31 9
53 36 91 22 30 38 66 42 91 5 45 32 105 57 130 10 9 19 40 22 74 4 55 32 129
61 164 8 9 16 48 19 85 5 73 6 78 47 167 19 40 29 82 32 130 7 100 23 182 48
246 l21 55 3 3695 c2 2032 1 3722 0 3755 -2 33 -6 -1463 -9 -3325z"/>
<path d="M1110 2643 c0 -5 4 -15 10 -23 11 -18 25 -7 17 15 -6 15 -27 21 -27
8z"/>
<path d="M18285 51 c-61 -14 8 -25 185 -29 175 -3 354 8 370 24 11 11 -511 16
-555 5z"/>
<path d="M5170 40 c-8 -5 -11 -13 -6 -17 10 -10 552 -10 562 0 5 4 2 12 -6 17
-19 13 -531 13 -550 0z"/>
</g>
</svg>
